<?xml version="1.0" encoding="UTF-8"?>
<svg version="1.1" xmlns="http://www.w3.org/2000/svg" width="80" height="80">
<path d="M0 0 C26.4 0 52.8 0 80 0 C80 26.4 80 52.8 80 80 C53.6 80 27.2 80 0 80 C0 53.6 0 27.2 0 0 Z " fill="#ECECEC" transform="translate(0,0)"/>
<path d="M0 0 C26.4 0 52.8 0 80 0 C80 10.23 80 20.46 80 31 C72.6628131 24.71098266 72.6628131 24.71098266 69.25 20.625 C66.78757892 18.07532778 65.5736118 17.09863695 62.046875 16.4921875 C59.31869605 16.49918283 56.7030994 16.64223684 54 17 C53.67 18.98 53.34 20.96 53 23 C52.62230469 22.566875 52.24460938 22.13375 51.85546875 21.6875 C49.05152158 18.85071972 47.12705042 17.15410073 43.0859375 16.6015625 C40.36830934 16.62262938 37.70428217 16.73592905 35 17 C34.67 18.98 34.34 20.96 34 23 C33.62230469 22.57847656 33.24460938 22.15695313 32.85546875 21.72265625 C29.13416476 18.01878225 26.54008216 16.62092952 21.23828125 16.30859375 C20.25512939 16.24341553 19.27197754 16.1782373 18.2590332 16.11108398 C17.51355225 16.07442627 16.76807129 16.03776855 16 16 C16.06682251 22.94208437 16.15655748 29.88359762 16.26245117 36.82519531 C16.2957656 39.18808203 16.32377697 41.55104958 16.34643555 43.9140625 C16.3798617 47.30503893 16.43217147 50.69527016 16.48828125 54.0859375 C16.49467117 55.14743011 16.5010611 56.20892273 16.50764465 57.30258179 C16.53733589 58.77388046 16.53733589 58.77388046 16.56762695 60.27490234 C16.57873001 61.14094086 16.58983307 62.00697937 16.60127258 62.89926147 C16.73285263 63.59250519 16.86443268 64.2857489 17 65 C18.485 65.99 18.485 65.99 20 67 C20 67.66 20 68.32 20 69 C20.57234375 69.24621094 21.1446875 69.49242188 21.734375 69.74609375 C24.36518743 71.20211235 26.14808905 72.91777234 28.25 75.0625 C28.95640625 75.77535156 29.6628125 76.48820312 30.390625 77.22265625 C32 79 32 79 32 80 C21.44 80 10.88 80 0 80 C0 53.6 0 27.2 0 0 Z " fill="#FDFCFD" transform="translate(0,0)"/>
<path d="M0 0 C3.63 0 7.26 0 11 0 C11 15.84 11 31.68 11 48 C7.37 48 3.74 48 0 48 C0 32.16 0 16.32 0 0 Z " fill="#F448A6" transform="translate(35,16)"/>
<path d="M0 0 C3.63 0 7.26 0 11 0 C11 15.84 11 31.68 11 48 C7.37 48 3.74 48 0 48 C0 32.16 0 16.32 0 0 Z " fill="#F44BA7" transform="translate(16,16)"/>
<path d="M0 0 C3.63 0 7.26 0 11 0 C11 15.84 11 31.68 11 48 C7.37 48 3.74 48 0 48 C0 32.16 0 16.32 0 0 Z " fill="#F24BA7" transform="translate(54,16)"/>
<path d="M0 0 C0.99 0.99 1.98 1.98 3 3 C2.67 3.99 2.34 4.98 2 6 C1.93795309 7.91179814 1.93323802 9.82567708 1.9609375 11.73828125 C2.01707804 19.22888425 1.85383885 26.70065577 1.625 34.1875 C1.57859375 36.14913086 1.57859375 36.14913086 1.53125 38.15039062 C1.47324219 40.0153418 1.47324219 40.0153418 1.4140625 41.91796875 C1.3826416 43.03969482 1.3512207 44.1614209 1.31884766 45.31713867 C1 48 1 48 -1 50 C-2.875 50.30078125 -2.875 50.30078125 -5 50.3125 C-5.70125 50.32925781 -6.4025 50.34601563 -7.125 50.36328125 C-7.74375 50.24339844 -8.3625 50.12351563 -9 50 C-9.66 49.01 -10.32 48.02 -11 47 C-7.37 47 -3.74 47 0 47 C0 31.49 0 15.98 0 0 Z " fill="#D8D4D6" transform="translate(46,17)"/>
<path d="M0 0 C0.66 0.33 1.32 0.66 2 1 C2.02501716 5.76480746 2.04300757 10.52957534 2.05493164 15.29443359 C2.05991102 16.91000028 2.06669694 18.52556258 2.07543945 20.14111328 C2.18909974 41.70982449 2.18909974 41.70982449 1 48 C-1.64194427 50.64194427 -3.3014996 50.85205998 -7 51 C-9.375 49.0625 -9.375 49.0625 -11 47 C-7.37 47 -3.74 47 0 47 C0 31.49 0 15.98 0 0 Z " fill="#D3D7D5" transform="translate(27,17)"/>
<path d="M0 0 C0 0.99 0 1.98 0 3 C-1.89128342 4.89128342 -4.57067726 4.2366852 -7.08984375 4.328125 C-8.03537109 4.16570312 -8.03537109 4.16570312 -9 4 C-9.66 3.01 -10.32 2.02 -11 1 C-5.555 0.505 -5.555 0.505 0 0 Z " fill="#D1C6CC" transform="translate(46,63)"/>
<path d="M0 0 C3.63 0 7.26 0 11 0 C10.67 0.99 10.34 1.98 10 3 C7.25 3.75 7.25 3.75 4 4 C1.625 2.0625 1.625 2.0625 0 0 Z " fill="#CEC2C9" transform="translate(16,64)"/>
<path d="M0 0 C2.97 0 5.94 0 9 0 C8.67 0.99 8.34 1.98 8 3 C5.69 3 3.38 3 1 3 C0.67 2.01 0.34 1.02 0 0 Z " fill="#D4C5CD" transform="translate(55,64)"/>
</svg>
